# xmcd
#
# Track frame offsets:
#   150
#   9517
#   20591
#   29660
#   42218
#   54050
#   65298
#   78474
#   88092
#   99072
#   108266
#   119241
#   130647
#   142702
#   152719
#   164676
#   175473
#   184711
#   193372
#   207082
#
# Disc length: 2898 seconds
#
# Revision: 0
# Processed by: cddbd v1.5.2PL0 Copyright (c) Steve Scherf et al.
# Submitted via: uFREEDB ActiveX Control 1.5
#
DISCID=0a0b5014
DTITLE=13 - 013
DYEAR=1900
DGENRE=Alternative
TTITLE0=131
TTITLE1=132
TTITLE2=133
TTITLE3=134
TTITLE4=135
TTITLE5=136
TTITLE6=137
TTITLE7=138
TTITLE8=139
TTITLE9=1310
TTITLE10=1311
TTITLE11=1312
TTITLE12=1313
TTITLE13=1314
TTITLE14=1315
TTITLE15=1316
TTITLE16=1317
TTITLE17=1318
TTITLE18=1319
TTITLE19=1320
EXTD=
EXTT0=
EXTT1=
EXTT2=
EXTT3=
EXTT4=
EXTT5=
EXTT6=
EXTT7=
EXTT8=
EXTT9=
EXTT10=
EXTT11=
EXTT12=
EXTT13=
EXTT14=
EXTT15=
EXTT16=
EXTT17=
EXTT18=
EXTT19=
PLAYORDER=
